<svg version="1.1" id="Capa_1" xmlns="http://www.w3.org/2000/svg" viewBox="0 0 512 512">
<style type="text/css">
	.st0{fill:url(#SVGID_1_);}
	.st1{fill:url(#SVGID_2_);}
	.st2{fill:url(#SVGID_3_);}
	.st3{fill:url(#SVGID_4_);}
</style>
<g>
	<linearGradient id="SVGID_1_" gradientUnits="userSpaceOnUse" x1="-9.311173e-04" y1="264.0002" x2="266.4578" y2="264.0002">
		<stop  offset="0" style="stop-color:#D55B26"/>
		<stop  offset="1" style="stop-color:#EF7D31"/>
	</linearGradient>
	<path class="st0" d="M256.1,354.4c-6.1-4.6-13.6-6.2-20.6-4.8c-1.1-6.6-4.6-12.5-10-16.6c-5.6-4.2-12.4-6-19.4-5.1
		c-1.7,0.2-3.4,0.6-5,1.2c-1.5-5.2-4.7-10-9.3-13.5c-7.7-5.8-17.5-6.7-25.8-3.3c-1.7-5-4.8-9.3-9-12.6c-5.6-4.2-12.5-6-19.4-5.1
		c-5.6,0.8-10.7,3.3-14.7,7.2l-27.5-1.8l16.8-136.7l30.1,2c0.2,0,0.3,0,0.5,0c2.8,0,5.4-1.6,6.7-4.1l11.3-22
		c2.9-5.6,9.3-8.4,15.4-6.7l16.8,4.6c4,1.1,8.1-1.2,9.2-5.2c1.1-4-1.2-8.1-5.2-9.2l-16.8-4.6c-12.9-3.6-26.6,2.5-32.7,14.4l-9,17.7
		l-24.4-1.7l0.6-4.7c1.8-15-8.9-28.7-23.9-30.6l-57.8-7.1c-4.1-0.5-7.9,2.4-8.4,6.5c-0.5,4.1,2.4,7.9,6.5,8.4l57.8,7.1
		c3.3,0.4,6.2,2.1,8.3,4.7s2.9,5.9,2.5,9.2L80.1,303.2C79.2,310,73,314.8,66.2,314l-57.8-7.1c-4.1-0.5-7.9,2.4-8.4,6.5
		c-0.5,4.1,2.4,7.9,6.5,8.4l57.8,7.1c1.1,0.1,2.3,0.2,3.4,0.2c10.1,0,19.3-5.6,24-14.2l20.5,1.4c-2.5,4.8-3.4,10.1-2.7,15.5
		c1,6.9,4.6,13.1,10.1,17.3c4.6,3.5,10.1,5.3,15.7,5.3c1.2,0,2.4-0.1,3.6-0.2c0.1,0,0.2,0,0.2,0c0,0.1,0,0.2,0,0.2
		c1,6.9,4.6,13.1,10.1,17.3c4.7,3.6,10.3,5.3,15.8,5.3c1.3,0,2.6-0.1,3.9-0.3c0.9,6.7,4.3,13.1,10.1,17.5c4.7,3.6,10.3,5.3,15.8,5.3
		c1.3,0,2.6-0.1,3.8-0.3c0,0.1,0,0.2,0,0.2c1,6.9,4.6,13.1,10.1,17.3c4.6,3.5,10.1,5.3,15.7,5.3c1.2,0,2.4-0.1,3.6-0.2
		c6.9-1,13.1-4.5,17.3-10.1l15.5-20.5C269.9,379.6,267.6,363.1,256.1,354.4z M137.1,339.2c-3,0.4-5.9-0.4-8.3-2.2
		c-2.4-1.8-3.9-4.4-4.3-7.4c-0.4-3,0.4-5.9,2.2-8.3l5.7-7.5c1.8-2.4,4.4-3.9,7.4-4.3c3-0.4,5.9,0.4,8.3,2.2c2.4,1.8,3.9,4.4,4.3,7.4
		s-0.4,5.9-2.2,8.3l-5.7,7.5C142.6,337.3,140,338.8,137.1,339.2z M158.6,359.6c-2.4-1.8-3.9-4.4-4.3-7.4c-0.4-3,0.4-5.9,2.2-8.3
		l5.7-7.5c0,0,0,0,0,0l5-6.7c2.2-2.9,5.5-4.4,8.9-4.4c2.3,0,4.7,0.7,6.7,2.3c4.9,3.7,5.9,10.7,2.2,15.6l-10.8,14.2
		C170.5,362.4,163.5,363.3,158.6,359.6z M188.3,382.1c-2.4-1.8-3.9-4.4-4.3-7.4c-0.4-3,0.4-5.9,2.2-8.3c0,0,0,0,0,0l10.8-14.2l0,0
		l3.9-5.2c1.8-2.4,4.4-3.9,7.4-4.3c3-0.4,5.9,0.4,8.3,2.2c4.9,3.7,5.9,10.7,2.2,15.6L203.9,380c0,0,0,0,0,0
		C200.2,384.9,193.2,385.9,188.3,382.1z M249.2,382l-15.5,20.5c-1.8,2.4-4.4,3.9-7.4,4.3c-3,0.4-5.9-0.4-8.3-2.2s-3.9-4.4-4.3-7.4
		c-0.4-3,0.4-5.9,2.2-8.3l14.7-19.4c0,0,0,0,0,0l0.8-1.1c1.8-2.4,4.4-3.9,7.4-4.3c3-0.4,5.9,0.4,8.3,2.2
		C252,370.1,252.9,377.1,249.2,382z"/>
	<linearGradient id="SVGID_2_" gradientUnits="userSpaceOnUse" x1="158.6779" y1="251.7909" x2="512.002" y2="251.7909">
		<stop  offset="0" style="stop-color:#D55B26"/>
		<stop  offset="1" style="stop-color:#EF7D31"/>
	</linearGradient>
	<path class="st1" d="M511.9,313.4c-0.5-4.1-4.2-7-8.4-6.5l-57.8,7.1c-6.8,0.8-13-4-13.9-10.8l-0.6-4.8l0,0l-0.1-1.1L412.1,142
		c-0.4-3.3,0.5-6.5,2.5-9.2c2-2.6,5-4.3,8.3-4.7l57.8-7.1c4.1-0.5,7-4.2,6.5-8.4c-0.5-4.1-4.2-7-8.4-6.5l-57.8,7.1
		c-14.1,1.7-24.4,14-24.1,27.9l-14.6,1.8l-45.1-25.4c-6.4-3.6-13.6-5.1-20.9-4.5c0,0,0,0,0,0l-13.6,1.3c-4.1,0.4-7.2,4-6.8,8.2
		c0.4,4.1,4,7.2,8.2,6.8l13.6-1.3c4.3-0.4,8.5,0.5,12.2,2.6l46.8,26.3c1.5,1,3.2,1.4,5,1.2l16.9-2.1l12.4,100.8l4.3,34.9l-27,0
		c-1.8,0-3.5,0.6-4.9,1.8l-2.1,1.6l-67.8-58.4c15.5-4.5,30.3-15.2,44.1-32.2c2.6-3.2,2.1-7.9-1.1-10.6c-3.2-2.6-7.9-2.1-10.6,1.1
		c-15.4,18.9-31.7,28.7-48.2,29c-24.1,0.5-41.9-19.6-42-19.7c-1.5-1.7-3.6-2.6-5.9-2.6c-2.3,0.1-4.4,1.1-5.7,2.9L224.1,231
		c-10.6,13.8-28.7,19-45,12.8l-2.2-0.8c-1.9-0.7-2.7-2.2-2.9-3s-0.6-2.4,0.4-4.2l52.6-90.5c3.4-5.9,9.5-9.7,16.2-10.3l31.1-2.9
		c4.1-0.4,7.2-4,6.8-8.2c-0.4-4.1-4-7.2-8.2-6.8l-31.1,2.9c-11.6,1.1-22,7.7-27.8,17.7l-52.6,90.5c-3,5.1-3.5,11.2-1.6,16.8
		s6.3,9.9,11.8,12l2.2,0.8c6.3,2.4,12.9,3.6,19.3,3.6c16.5,0,32.3-7.5,42.9-21.3l15-19.6c8.1,6.9,23.1,17.2,42.3,18.5l97.9,84.4
		c1.8,1.5,2.8,3.6,3,5.9s-0.6,4.6-2.1,6.3l-3.8,4.4c-4.8,5.6-13.2,6.2-18.8,1.4c-0.3-0.3-0.6-0.5-1-0.7l-25.4-21.9
		c-3.1-2.7-7.9-2.4-10.6,0.8c-2.7,3.1-2.4,7.9,0.8,10.6l20.7,17.8l-9.4,10.9c-2.9,3.4-7.3,5.1-11.7,4.5c-2.6-0.3-5.1-1.4-7.1-3.1
		c0,0-0.1-0.1-0.1-0.1L302,340c-3.1-2.7-7.9-2.4-10.6,0.8c-2.7,3.1-2.4,7.9,0.8,10.6l18.1,15.6l-9.5,11c-2.9,3.4-7.3,5.1-11.7,4.5
		c-4.1-0.5-7.8,2.5-8.3,6.6c-0.5,4.1,2.5,7.8,6.6,8.3c1.1,0.1,2.2,0.2,3.3,0.2c8.2,0,16-3.5,21.5-9.8l10.1-11.8
		c2.8,1.3,5.7,2.2,8.8,2.5c9.4,1.1,18.6-2.5,24.8-9.6l10.2-11.8c11.2,5.3,25.1,2.8,33.6-7.1l3.8-4.4c4.1-4.8,6.1-10.9,5.7-17.2
		c-0.5-6.3-3.4-12.1-8.2-16.2l-6.2-5.3l22.5,0c2.5,13,13.9,22.3,26.9,22.3c1.1,0,2.2-0.1,3.4-0.2l57.8-7.1
		C509.5,321.2,512.5,317.5,511.9,313.4z"/>
	<linearGradient id="SVGID_3_" gradientUnits="userSpaceOnUse" x1="442.004" y1="281.2475" x2="486.001" y2="281.2475">
		<stop  offset="0" style="stop-color:#D55B26"/>
		<stop  offset="1" style="stop-color:#EF7D31"/>
	</linearGradient>
	<path class="st2" d="M464,259.2c-12.1,0-22,9.9-22,22s9.9,22,22,22s22-9.9,22-22S476.1,259.2,464,259.2z M464,288.2
		c-3.9,0-7-3.1-7-7s3.1-7,7-7s7,3.1,7,7S467.9,288.2,464,288.2z"/>
	<linearGradient id="SVGID_4_" gradientUnits="userSpaceOnUse" x1="25.193" y1="281.2475" x2="69.189" y2="281.2475">
		<stop  offset="0" style="stop-color:#D55B26"/>
		<stop  offset="1" style="stop-color:#EF7D31"/>
	</linearGradient>
	<path class="st3" d="M69.2,281.2c0-12.1-9.9-22-22-22s-22,9.9-22,22s9.9,22,22,22S69.2,293.4,69.2,281.2z M40.2,281.2
		c0-3.9,3.1-7,7-7s7,3.1,7,7s-3.1,7-7,7S40.2,285.1,40.2,281.2z"/>
</g>
</svg>
