<svg version="1.1" id="Layer_1" xmlns="http://www.w3.org/2000/svg" xmlns:xlink="http://www.w3.org/1999/xlink" viewBox="0 0 34 34">
<style type="text/css">
	.st0{fill:url(#SVGID_1_);}
	.st1{fill:#FFFFFF;}
</style>
<g>
	<linearGradient id="SVGID_1_" gradientUnits="userSpaceOnUse" x1="2" y1="17" x2="32" y2="17">
		<stop  offset="0" style="stop-color:#D55B26"/>
		<stop  offset="1" style="stop-color:#EF7D31"/>
	</linearGradient>
	<path class="st0" d="M17,32C8.7,32,2,25.3,2,17C2,8.7,8.7,2,17,2c8.3,0,15,6.7,15,15C32,25.3,25.3,32,17,32z"/>
	<path class="st1" d="M17,4c7.2,0,13,5.8,13,13s-5.8,13-13,13S4,24.2,4,17S9.8,4,17,4 M17,0C7.6,0,0,7.6,0,17s7.6,17,17,17
		s17-7.6,17-17S26.4,0,17,0L17,0z"/>
</g>
<g>
	<path class="st1" d="M18.1,17l2.4-2.4c0.1-0.1,0.1-0.1,0-0.2l-0.9-0.9c0,0-0.1,0-0.1,0c0,0-0.1,0-0.1,0L17,15.9l-2.4-2.4
		c-0.1-0.1-0.2-0.1-0.2,0l-0.9,0.9c-0.1,0.1-0.1,0.1,0,0.2l2.4,2.4l-2.4,2.4c-0.1,0.1-0.1,0.1,0,0.2l0.9,0.9c0,0,0.1,0,0.1,0
		c0,0,0.1,0,0.1,0l2.4-2.4l2.4,2.4c0,0,0.1,0,0.1,0c0,0,0.1,0,0.1,0l0.9-0.9c0.1-0.1,0.1-0.1,0-0.2L18.1,17z"/>
</g>
</svg>
