<?xml version="1.0" encoding="utf-8"?>
<!-- Generator: Adobe Illustrator 21.1.0, SVG Export Plug-In . SVG Version: 6.00 Build 0)  -->
<svg version="1.1" id="Capa_1" xmlns="http://www.w3.org/2000/svg" xmlns:xlink="http://www.w3.org/1999/xlink" x="0px" y="0px"
	 viewBox="0 0 60 60" style="enable-background:new 0 0 60 60;" xml:space="preserve">
<style type="text/css">
	.st0{fill:#FFFFFF;}
</style>
<g>
	<path class="st0" d="M0,8v33c0,3.3,2.7,6,6,6h8v10c0,0.4,0.3,0.8,0.6,0.9c0.1,0,0.2,0.1,0.4,0.1c0.3,0,0.5-0.1,0.7-0.3L25.4,47H54
		c3.3,0,6-2.7,6-6V8c0-3.3-2.7-6-6-6H6C2.7,2,0,4.7,0,8z M40,24c0-2.2,1.8-4,4-4s4,1.8,4,4s-1.8,4-4,4S40,26.2,40,24z M26,24
		c0-2.2,1.8-4,4-4s4,1.8,4,4s-1.8,4-4,4S26,26.2,26,24z M12,24c0-2.2,1.8-4,4-4s4,1.8,4,4s-1.8,4-4,4S12,26.2,12,24z"/>
</g>
</svg>
