<svg version="1.1" id="Layer_1" xmlns="http://www.w3.org/2000/svg" viewBox="0 0 512 512">
<style type="text/css">
	.st0{fill:url(#SVGID_1_);}
	.st1{fill:url(#SVGID_2_);}
	.st2{fill:url(#SVGID_3_);}
	.st3{fill:url(#SVGID_4_);}
	.st4{fill:url(#SVGID_5_);}
	.st5{fill:url(#SVGID_6_);}
</style>
<linearGradient id="SVGID_1_" gradientUnits="userSpaceOnUse" x1="198.9414" y1="163.4986" x2="512" y2="163.4986">
	<stop  offset="0" style="stop-color:#D55B26"/>
	<stop  offset="1" style="stop-color:#EF7D31"/>
</linearGradient>
<path class="st0" d="M479.7,45h-48.1c-4.2,0-7.6,3.4-7.6,7.6c0,4.2,3.4,7.6,7.6,7.6h48.1c9.4,0,17.1,7.7,17.1,17.1v115.8
	c0,9.4-7.7,17.1-17.1,17.1H302.3c-2,0-3.9,0.8-5.4,2.2l-43.7,43.7v-38.3c0-4.2-3.4-7.6-7.6-7.6h-14.4c-9.4,0-17.1-7.7-17.1-17.1
	V77.3c0-9.4,7.7-17.1,17.1-17.1h175.1c4.2,0,7.6-3.4,7.6-7.6c0-4.2-3.4-7.6-7.6-7.6H231.2c-17.8,0-32.3,14.5-32.3,32.3v115.8
	c0,17.8,14.5,32.3,32.3,32.3h6.9v49.1c0,3.1,1.8,5.8,4.7,7c0.9,0.4,1.9,0.6,2.9,0.6c2,0,3.9-0.8,5.4-2.2l54.4-54.4h174.3
	c17.8,0,32.3-14.5,32.3-32.3V77.3C512,59.5,497.5,45,479.7,45z"/>
<linearGradient id="SVGID_2_" gradientUnits="userSpaceOnUse" x1="247.5742" y1="131.0904" x2="294.4805" y2="131.0904">
	<stop  offset="0" style="stop-color:#D55B26"/>
	<stop  offset="1" style="stop-color:#EF7D31"/>
</linearGradient>
<path class="st1" d="M274.3,142.3c9-6.2,20.2-13.8,20.2-26.9c0-6.2-2.5-11.5-7.3-15.3c-4.2-3.4-10-5.3-15.9-5.3
	c-10.9,0-22.5,6.7-22.5,19.1c0,5.5,2.3,8.2,7.1,8.2c5.4,0,8.2-3,8.2-5.8c0-4.6,2.7-7.3,7.3-7.3c5.5,0,7.4,3.7,7.4,6.9
	c0,5.9-6.9,11-14.3,16.4c-8.3,6.1-16.9,12.4-16.9,20.6v9.6c0,3,4.1,4.9,6.9,4.9h35.3c2.5,0,4.8-3.3,4.8-7c0-3.6-2.2-6.8-4.8-6.8
	h-25.8v-0.8C263.9,149.5,268.7,146.2,274.3,142.3z"/>
<linearGradient id="SVGID_3_" gradientUnits="userSpaceOnUse" x1="300.2695" y1="131.0884" x2="353.3203" y2="131.0884">
	<stop  offset="0" style="stop-color:#D55B26"/>
	<stop  offset="1" style="stop-color:#EF7D31"/>
</linearGradient>
<path class="st2" d="M336.5,167.4c5.4,0,7.9-2.5,7.9-4.9v-10.4h4.1c2.5,0,4.9-3.6,4.9-7.3c0-5-2.5-7.3-4.9-7.3h-4.1v-6.8
	c0-2.2-2.1-4.8-7.9-4.8s-7.9,2.6-7.9,4.8v6.8h-8.2l17.4-35c0.3-0.6,0.5-1.3,0.5-1.9c0-1.6-1-3.2-2.9-4.4c-1.5-1-3.5-1.6-4.9-1.6
	c-2.9,0-5.2,1.4-6.6,4l-22.9,44.9c-0.7,1.3-0.8,2.5-0.8,3c0,3.3,2.1,5.5,5.3,5.5h23.1v10.4C328.6,164.9,331.1,167.4,336.5,167.4z"/>
<linearGradient id="SVGID_4_" gradientUnits="userSpaceOnUse" x1="360.3945" y1="131.3365" x2="405.918" y2="131.3365">
	<stop  offset="0" style="stop-color:#D55B26"/>
	<stop  offset="1" style="stop-color:#EF7D31"/>
</linearGradient>
<path class="st3" d="M395.7,93.2l-34.8,71.4c-0.3,0.6-0.5,1.4-0.5,1.9c0,2.6,2.3,5.4,5.7,5.4c2,0,3.9-1.1,4.6-2.5L405.5,98
	c0.3-0.7,0.4-1.4,0.4-1.9c0-3.2-3.1-5.4-6-5.4C398,90.7,396.4,91.6,395.7,93.2z"/>
<linearGradient id="SVGID_5_" gradientUnits="userSpaceOnUse" x1="414.4805" y1="131.3853" x2="463.3711" y2="131.3853">
	<stop  offset="0" style="stop-color:#D55B26"/>
	<stop  offset="1" style="stop-color:#EF7D31"/>
</linearGradient>
<path class="st4" d="M422.2,119.9c4.3,0,8-2.2,8-4.9v-6.5h17.5v6.8l-24.4,42.2c-0.5,0.9-0.7,1.7-0.7,2.6c0,4.7,5.2,7.9,9.9,7.9
	c2.2,0,3.7-0.7,4.5-2.1l23.2-44.4c0.7-1.4,3.2-6.2,3.2-9.5V99.6c0-2.1-3.3-4.9-6.9-4.9h-35.2c-3.5,0-6.9,2.4-6.9,4.9V115
	C414.5,117.7,418,119.9,422.2,119.9z"/>
<linearGradient id="SVGID_6_" gradientUnits="userSpaceOnUse" x1="-1.451677e-03" y1="270.4537" x2="394.2656" y2="270.4537">
	<stop  offset="0" style="stop-color:#D55B26"/>
	<stop  offset="1" style="stop-color:#EF7D31"/>
</linearGradient>
<path class="st5" d="M313.8,308.4c-3.9-3.9-9.2-6.1-14.8-6.1s-10.8,2.2-14.8,6.1l-46.4,46.4c-18.5-9.7-34.5-18.9-52.5-34
	c-3.2-2.7-8-2.3-10.7,0.9c-2.7,3.2-2.3,8,0.9,10.7c20.7,17.5,38.8,27.3,60.2,38.4c2.9,1.5,6.5,1,8.8-1.4l25-24.9l82.3,82.3
	c-26.6,22.8-64.2,30.8-106.9,22.4c-48-9.4-98.9-39-143.2-83.3s-73.9-95.1-83.3-143.2c-8.4-42.7-0.5-80.4,22.3-106.9l82.3,82.3
	l-25,25c-2.3,2.3-2.9,5.9-1.4,8.9c15.1,29.2,27.3,50.7,57.8,81.2c3,3,7.8,3,10.7,0c3-3,3-7.8,0-10.7c-27.4-27.4-38.9-46.3-52.5-72.5
	l46.4-46.4c3.9-3.9,6.1-9.2,6.1-14.8s-2.2-10.8-6.1-14.8L84.8,79.4c-3.9-3.9-9.2-6.1-14.8-6.1s-10.8,2.2-14.8,6.1l-20,20
	C4.8,129.9-6.4,174.7,3.6,225.6c10,51,41.1,104.6,87.5,151c46.4,46.4,100,77.4,151,87.5c12.1,2.4,23.9,3.6,35.2,3.6
	c36.2,0,67.7-12,90.9-35.2l20-20c3.9-3.9,6.1-9.2,6.1-14.8s-2.2-10.8-6.1-14.8L313.8,308.4z M66,90.2c1.1-1.1,2.5-1.7,4-1.7
	s3,0.6,4,1.7l74.4,74.4c1.1,1.1,1.7,2.5,1.7,4s-0.6,3-1.7,4l-14.6,14.6l-82.5-82.5L66,90.2z M377.4,401.6l-14.6,14.6l-82.5-82.5
	l14.6-14.6c1.1-1.1,2.5-1.7,4-1.7s3,0.6,4,1.7l74.4,74.4C379.6,395.8,379.6,399.4,377.4,401.6z"/>
</svg>
