<svg version="1.1" xmlns="http://www.w3.org/2000/svg" viewBox="0 0 512 512">
<style type="text/css">
	.st0{fill:url(#SVGID_1_);}
</style>
<g>
	<g>
		<linearGradient id="SVGID_1_" gradientUnits="userSpaceOnUse" x1="0" y1="256" x2="512" y2="256">
			<stop  offset="0" style="stop-color:#D55B26"/>
			<stop  offset="1" style="stop-color:#EF7D31"/>
		</linearGradient>
		<path class="st0" d="M477.9,139.1H360.2V94.5c0-19-15.4-34.4-34.4-34.4H186.2c-19,0-34.4,15.4-34.4,34.4v44.6H34.1
			C15.3,139.1,0,154.4,0,173.2v47.7c0,8.4,6.9,15.3,15.3,15.3h2.3v181.6c0,18.8,15.3,34.1,34.1,34.1h408.7
			c18.8,0,34.1-15.3,34.1-34.1V236.2h2.3c8.4,0,15.3-6.9,15.3-15.3v-47.7C512,154.4,496.7,139.1,477.9,139.1z M166.8,94.5
			c0-10.7,8.7-19.4,19.4-19.4h139.6c10.7,0,19.4,8.7,19.4,19.4v44.6h-10.9V94.5c0-4.7-3.8-8.5-8.5-8.5H186.2c-4.7,0-8.5,3.8-8.5,8.5
			v44.6h-10.9V94.5z M319.3,101v38.1H192.7V101H319.3z M479.4,417.8L479.4,417.8c0,10.5-8.6,19.1-19.1,19.1H51.6
			c-10.5,0-19.1-8.6-19.1-19.1V236.2H94v30c0,10.2,8.3,18.5,18.5,18.5h32.4c10.2,0,18.5-8.3,18.5-18.5v-30h185.4v30
			c0,10.2,8.3,18.5,18.5,18.5h32.4c10.2,0,18.5-8.3,18.5-18.5v-30h61.4L479.4,417.8L479.4,417.8z M109,266.2v-37.5v-22
			c0-1.9,1.6-3.5,3.5-3.5h32.4c1.9,0,3.5,1.6,3.5,3.5v22v37.5c0,1.9-1.6,3.5-3.5,3.5h-32.4C110.5,269.7,109,268.1,109,266.2z
			 M363.7,266.2v-37.5v-22c0-1.9,1.6-3.5,3.5-3.5h32.4c1.9,0,3.5,1.6,3.5,3.5v22v37.5c0,1.9-1.6,3.5-3.5,3.5h-32.4
			C365.3,269.7,363.7,268.1,363.7,266.2z M497,220.9c0,0.2-0.1,0.3-0.3,0.3h-9.8H418v-14.5c0-10.2-8.3-18.5-18.5-18.5h-32.4
			c-10.2,0-18.5,8.3-18.5,18.5v14.5H163.3v-14.5c0-10.2-8.3-18.5-18.5-18.5h-32.4c-10.2,0-18.5,8.3-18.5,18.5v14.5H25.1h-9.8
			c-0.2,0-0.3-0.1-0.3-0.3v-47.7c0-10.5,8.6-19.1,19.1-19.1h443.9c10.5,0,19.1,8.6,19.1,19.1V220.9z"/>
	</g>
</g>
</svg>
