<svg version="1.1" xmlns="http://www.w3.org/2000/svg" viewBox="0 0 463 463">
<style type="text/css">
	.st0{fill:url(#SVGID_1_);}
	.st1{fill:url(#SVGID_2_);}
	.st2{fill:url(#SVGID_3_);}
	.st3{fill:url(#SVGID_4_);}
	.st4{fill:url(#SVGID_5_);}
	.st5{fill:url(#SVGID_6_);}
	.st6{fill:url(#SVGID_7_);}
	.st7{fill:url(#SVGID_8_);}
	.st8{fill:url(#SVGID_9_);}
	.st9{fill:url(#SVGID_10_);}
	.st10{fill:url(#SVGID_11_);}
</style>
<g>
	<linearGradient id="SVGID_1_" gradientUnits="userSpaceOnUse" x1="224" y1="47.5" x2="239" y2="47.5">
		<stop  offset="0" style="stop-color:#D55B26"/>
		<stop  offset="1" style="stop-color:#EF7D31"/>
	</linearGradient>
	<path class="st0" d="M231.5,63c4.1,0,7.5-3.4,7.5-7.5v-16c0-4.1-3.4-7.5-7.5-7.5s-7.5,3.4-7.5,7.5v16C224,59.6,227.4,63,231.5,63z"
		/>
	<linearGradient id="SVGID_2_" gradientUnits="userSpaceOnUse" x1="232" y1="159.5" x2="295" y2="159.5">
		<stop  offset="0" style="stop-color:#D55B26"/>
		<stop  offset="1" style="stop-color:#EF7D31"/>
	</linearGradient>
	<path class="st1" d="M239.5,167h48c4.1,0,7.5-3.4,7.5-7.5s-3.4-7.5-7.5-7.5h-48c-4.1,0-7.5,3.4-7.5,7.5S235.4,167,239.5,167z"/>
	<linearGradient id="SVGID_3_" gradientUnits="userSpaceOnUse" x1="232" y1="191.5" x2="327" y2="191.5">
		<stop  offset="0" style="stop-color:#D55B26"/>
		<stop  offset="1" style="stop-color:#EF7D31"/>
	</linearGradient>
	<path class="st2" d="M239.5,199h80c4.1,0,7.5-3.4,7.5-7.5s-3.4-7.5-7.5-7.5h-80c-4.1,0-7.5,3.4-7.5,7.5S235.4,199,239.5,199z"/>
	<linearGradient id="SVGID_4_" gradientUnits="userSpaceOnUse" x1="136.025" y1="171.5125" x2="214.975" y2="171.5125">
		<stop  offset="0" style="stop-color:#D55B26"/>
		<stop  offset="1" style="stop-color:#EF7D31"/>
	</linearGradient>
	<path class="st3" d="M162.2,196.8c1.5,1.5,3.4,2.2,5.3,2.2s3.8-0.7,5.3-2.2l40-40c2.9-2.9,2.9-7.7,0-10.6c-2.9-2.9-7.7-2.9-10.6,0
		l-34.7,34.7l-18.7-18.7c-2.9-2.9-7.7-2.9-10.6,0c-2.9,2.9-2.9,7.7,0,10.6L162.2,196.8L162.2,196.8z"/>
	<linearGradient id="SVGID_5_" gradientUnits="userSpaceOnUse" x1="232" y1="239.5" x2="295" y2="239.5">
		<stop  offset="0" style="stop-color:#D55B26"/>
		<stop  offset="1" style="stop-color:#EF7D31"/>
	</linearGradient>
	<path class="st4" d="M239.5,247h48c4.1,0,7.5-3.4,7.5-7.5s-3.4-7.5-7.5-7.5h-48c-4.1,0-7.5,3.4-7.5,7.5S235.4,247,239.5,247z"/>
	<linearGradient id="SVGID_6_" gradientUnits="userSpaceOnUse" x1="232" y1="271.5" x2="327" y2="271.5">
		<stop  offset="0" style="stop-color:#D55B26"/>
		<stop  offset="1" style="stop-color:#EF7D31"/>
	</linearGradient>
	<path class="st5" d="M239.5,279h80c4.1,0,7.5-3.4,7.5-7.5s-3.4-7.5-7.5-7.5h-80c-4.1,0-7.5,3.4-7.5,7.5S235.4,279,239.5,279z"/>
	<linearGradient id="SVGID_7_" gradientUnits="userSpaceOnUse" x1="136.025" y1="251.5125" x2="214.975" y2="251.5125">
		<stop  offset="0" style="stop-color:#D55B26"/>
		<stop  offset="1" style="stop-color:#EF7D31"/>
	</linearGradient>
	<path class="st6" d="M162.2,276.8c1.5,1.5,3.4,2.2,5.3,2.2s3.8-0.7,5.3-2.2l40-40c2.9-2.9,2.9-7.7,0-10.6c-2.9-2.9-7.7-2.9-10.6,0
		l-34.7,34.7l-18.7-18.7c-2.9-2.9-7.7-2.9-10.6,0c-2.9,2.9-2.9,7.7,0,10.6L162.2,276.8L162.2,276.8z"/>
	<linearGradient id="SVGID_8_" gradientUnits="userSpaceOnUse" x1="232" y1="319.5" x2="295" y2="319.5">
		<stop  offset="0" style="stop-color:#D55B26"/>
		<stop  offset="1" style="stop-color:#EF7D31"/>
	</linearGradient>
	<path class="st7" d="M239.5,327h48c4.1,0,7.5-3.4,7.5-7.5s-3.4-7.5-7.5-7.5h-48c-4.1,0-7.5,3.4-7.5,7.5S235.4,327,239.5,327z"/>
	<linearGradient id="SVGID_9_" gradientUnits="userSpaceOnUse" x1="232" y1="351.5" x2="327" y2="351.5">
		<stop  offset="0" style="stop-color:#D55B26"/>
		<stop  offset="1" style="stop-color:#EF7D31"/>
	</linearGradient>
	<path class="st8" d="M239.5,359h80c4.1,0,7.5-3.4,7.5-7.5s-3.4-7.5-7.5-7.5h-80c-4.1,0-7.5,3.4-7.5,7.5S235.4,359,239.5,359z"/>
	<linearGradient id="SVGID_10_" gradientUnits="userSpaceOnUse" x1="136.025" y1="331.5125" x2="214.975" y2="331.5125">
		<stop  offset="0" style="stop-color:#D55B26"/>
		<stop  offset="1" style="stop-color:#EF7D31"/>
	</linearGradient>
	<path class="st9" d="M162.2,356.8c1.5,1.5,3.4,2.2,5.3,2.2s3.8-0.7,5.3-2.2l40-40c2.9-2.9,2.9-7.7,0-10.6s-7.7-2.9-10.6,0
		l-34.7,34.7l-18.7-18.7c-2.9-2.9-7.7-2.9-10.6,0c-2.9,2.9-2.9,7.7,0,10.6L162.2,356.8L162.2,356.8z"/>
</g>
<linearGradient id="SVGID_11_" gradientUnits="userSpaceOnUse" x1="64" y1="231.5" x2="399" y2="231.5">
	<stop  offset="0" style="stop-color:#D55B26"/>
	<stop  offset="1" style="stop-color:#EF7D31"/>
</linearGradient>
<path class="st10" d="M384,265.8v165.7c0,9.1-7.4,16.5-16.5,16.5h-272c-9.1,0-16.5-7.4-16.5-16.5v-368C79,54.4,86.4,47,95.5,47H152
	v17h-48.5c-4.1,0-7.5,3.4-7.5,7.5v352c0,4.1,3.4,7.5,7.5,7.5h256c4.1,0,7.5-3.4,7.5-7.5v-352c0-4.1-3.4-7.5-7.5-7.5H311V47h56.5
	c9.1,0,16.5,7.4,16.5,16.5v156.7c0,4.1,3.4,7.5,7.5,7.5l0,0c4.1,0,7.5-3.4,7.5-7.5V63.5c0-17.4-14.1-31.5-31.5-31.5h-57.7
	c-3.1-9.3-11.9-16-22.3-16h-24.4C255.7,6,244,0,231.5,0s-24.2,6-31.6,16h-24.4c-10.3,0-19.1,6.7-22.3,16H95.5
	C78.1,32,64,46.1,64,63.5v368c0,17.4,14.1,31.5,31.5,31.5h272c17.4,0,31.5-14.1,31.5-31.5V265.8c0-4.1-3.4-7.5-7.5-7.5l0,0
	C387.4,258.3,384,261.7,384,265.8z M167,39.5c0-4.7,3.8-8.5,8.5-8.5h28.4c2.6,0,5.1-1.4,6.4-3.6c4.5-7.7,12.4-12.4,21.1-12.4
	c8.8,0,16.7,4.6,21.1,12.4c1.3,2.3,3.8,3.6,6.4,3.6h28.4c4.7,0,8.5,3.8,8.5,8.5v32l0,0l0,0c0,4.7-3.8,8.5-8.5,8.5H175
	c-4.7,0-8.3-3.8-8-8.5l0,0l0,0V39.5z M175.5,95h112c10.3,0,19.1-6.7,22.3-16H352v337H111V79h42.2C156.4,88.3,165.2,95,175.5,95z"/>
</svg>
