<svg version="1.1" xmlns="http://www.w3.org/2000/svg" viewBox="0 0 802.8 252.3">
<style type="text/css">
	.st0{fill:#232323;}
	.st1{fill:url(#SVGID_1_);}
	.st2{fill:url(#SVGID_2_);}
	.st3{fill:url(#SVGID_3_);}
	.st4{fill:url(#SVGID_4_);}
	.st5{fill:url(#SVGID_5_);}
	.st6{fill:url(#SVGID_6_);}
</style>
	<path class="st0" d="M345,121.5V54.8H374l19.7,41.4l20.1-41.4h27.6v66.7h-21V78.9l-19.9,42.6h-15l-19.9-42.6v42.6H345z"/>
	<path class="st0" d="M516.5,121.5l-5.2-11.6h-35.2l-5.1,11.6h-21.5l30.4-66.7h28.3l31.3,66.7H516.5z M504.7,95.2l-11.2-24.9l-10.9,24.9H504.7z"/>
	<path class="st0" d="M617.2,121.5h-71.3v-14.1l39.8-35.8h-39.5V54.8h70.5v13.9l-41.4,35.7h41.8v17.1H617.2z"/>
	<path class="st0" d="M797.5,94.5c2.9,2.9,4.2,6.8,4.2,11.5v8.7c0,2.2,0.1,3.6,0.4,4.4c0.1,0.8,0.4,1.4,0.8,2v0.4h-22.2c-0.1-0.7-0.3-1-0.4-1.3c-0.1-0.8-0.1-1.8-0.1-3v-5.6c0-2.2-0.3-4-0.7-5.6c-0.4-1.4-1-2.7-2.1-3.6c-2-1.7-5.2-2.6-9.9-2.6h-22.5v21.6h-21.4V54.7h49.5c11.1,0,18.9,2,23.5,6c3.1,2.9,4.7,6.8,4.7,12v0.8c0,4.2-1.4,7.7-4.3,10.6c-2.6,2.6-6,4.3-10.2,5.2C791.3,90.4,795,92.1,797.5,94.5z M744.9,83.5h25.2c3.1,0,5.5-0.7,6.9-1.8c1.2-0.9,1.7-2.5,1.7-4.4v-0.1c0-2-0.5-3.4-1.7-4.3c-1.4-1.2-3.8-1.8-6.9-1.8h-25.2V83.5z"/>
	<path class="st0" d="M381.1,201.7c-13.7,0-23.9-3.6-30.8-11.1c-2.9-3-5-6.5-6.3-10.4c-1.3-3.9-2-8-2-12V166c0-5.3,1.2-10.4,3.5-15c2.6-5.5,6.8-9.6,12.5-12.8c6.6-3.5,15-5.3,25-5.3h3c14.3,0,25,2.7,32.1,8.2c2.9,2.2,4.8,4.7,6.1,7.4c1.3,2.7,2,5.6,2,8.3v0.3h-22.4l-1-2c-1.3-2.1-4.2-3.8-8.6-5c-2.5-0.7-5.7-1-9.6-1c-7.2,0-12.6,1.8-16.2,5.3c-2.9,2.9-4.2,6.8-4.2,11.6v1c0,2.2,0.4,4.3,1,6.3c0.7,2,1.8,3.9,3.4,5.5c3.6,3.9,9,5.9,16.3,5.9c6.5,0,11.5-1.3,15-3.8c2.1-1.6,3.3-3.4,3.9-5.3h-18.8v-12.3h41.8v36.9H411c-0.1-1.2-0.4-2.7-1-4.4c-0.3-0.8-0.8-2.3-1.7-4.4c-2.2,2.5-4.7,4.3-7.3,5.7c-5.2,2.7-11.3,4.2-18.4,4.2h-1.6V201.7z"/>
	<path class="st0" d="M515.6,173.8c2.9,2.9,4.2,6.8,4.2,11.5v8.7c0,2.2,0.1,3.6,0.4,4.4c0.1,0.8,0.4,1.4,0.8,2v0.4h-22.2c-0.1-0.7-0.3-1-0.4-1.3c-0.1-0.8-0.1-1.8-0.1-3v-5.6c0-2.2-0.3-4-0.7-5.6c-0.4-1.4-1-2.7-2.1-3.6c-2-1.7-5.2-2.6-9.9-2.6h-22.4v21.6h-21.5v-66.7h49.5c11.1,0,18.9,2,23.5,6c3.1,2.9,4.7,6.8,4.7,12v0.8c0,4.2-1.4,7.7-4.3,10.6c-2.6,2.6-6,4.3-10.2,5.2C509.6,169.5,513.1,171.2,515.6,173.8z M463.2,162.6h25.2c3.1,0,5.5-0.7,6.9-1.8c1.2-0.9,1.7-2.5,1.7-4.4v-0.1c0-2-0.5-3.4-1.7-4.3c-1.4-1.2-3.8-1.8-6.9-1.8h-25.2V162.6z"/>
	<path class="st0" d="M576.2,133c10.4,0,18.9,1.8,25.7,5.3c5.6,3,9.8,7.3,12.5,12.6c2.2,4.4,3.3,9.4,3.3,14.9v2.7c0,3.9-0.7,7.7-2,11.6c-1.3,3.8-3.4,7.3-6.3,10.3c-7.2,7.6-18.2,11.3-33.4,11.3h-4c-10.4,0-18.9-1.8-25.5-5.6c-5.7-3.1-9.9-7.4-12.5-12.9c-2.2-4.4-3.4-9.4-3.4-14.7v-2.7c0-5.6,1.2-10.6,3.4-14.9c2.7-5.3,6.9-9.6,12.5-12.6c6.5-3.6,15.1-5.3,25.5-5.3L576.2,133L576.2,133z M595.3,166.6c0-4.7-1.3-8.3-3.9-11.2c-3.5-3.8-9.3-5.7-17.3-5.7c-8,0-13.7,2-17.3,5.7c-2.6,2.9-3.9,6.5-3.9,11.2v1.2c0,4.6,1.4,8.3,4.2,11.3c3.6,3.9,9.4,5.9,17.1,5.9c8,0,13.8-2,17.3-5.9c2.6-2.9,3.9-6.6,3.9-11.3V166.6z"/>
	<path class="st0" d="M642.9,195.5c-5-3.1-8.5-7.8-10.7-13.9c-1.4-4-2.2-9-2.2-14.9V54h21.4v112.5c0,4.8,1,8.7,3.3,11.6c2.9,3.9,7.8,5.9,15.1,5.9h0.4c7.2,0,12.3-2,15.1-5.9c2.1-2.9,3-6.6,3-11.6V54h21.4v112.7c0,5.6-0.8,10.6-2.3,14.9c-2.2,6-5.7,10.6-10.8,13.9c-6.4,4-14.7,6.1-25.2,6.1h-2.6C657.9,201.7,649.3,199.7,642.9,195.5z"/>
	<path class="st0" d="M744.2,180v20.6h-21.4v-66.7h46.9c10.8,0,18.6,2.1,23.5,6.3c4,3.6,6.1,9,6.1,16v1c0,7.2-2.1,12.6-6.1,16.3c-5,4.3-12.6,6.5-23.3,6.5L744.2,180L744.2,180z M744.2,164.1h23.7c6,0,9-2.3,9-7v-0.3c0-4.6-3-6.8-9-6.8h-23.7V164.1z"/>
	<linearGradient id="SVGID_1_" gradientUnits="userSpaceOnUse" x1="34.1202" y1="275.7932" x2="173.3255" y2="105.6693" gradientTransform="matrix(1 0 0 -1 0 410)">
		<stop  offset="0" style="stop-color:#FF7700"/>
		<stop  offset="1" style="stop-color:#C42300"/>
	</linearGradient>
	<polygon class="st1" points="144,216 144,144 0,72 0,217 71.5,252.3 	"/>
	<linearGradient id="SVGID_2_" gradientUnits="userSpaceOnUse" x1="184.9683" y1="217.4866" x2="399.4012" y2="315.0981" gradientTransform="matrix(1 0 0 -1 0 410)">
		<stop  offset="0" style="stop-color:#FF7700"/>
		<stop  offset="1" style="stop-color:#C42300"/>
	</linearGradient>
	<polygon class="st2" points="144,144 144,216 216,252 288,216 288,72 		"/>
	<linearGradient id="SVGID_3_" gradientUnits="userSpaceOnUse" x1="142.1412" y1="182.5817" x2="66.2909" y2="194.9294" gradientTransform="matrix(1 0 0 -1 0 410)">
		<stop  offset="0" style="stop-color:#A63C00"/>
		<stop  offset="1" style="stop-color:#410D00"/>
	</linearGradient>
	<polygon class="st3" points="72,252 72,180 144,216"/>
	<linearGradient id="SVGID_4_" gradientUnits="userSpaceOnUse" x1="174.3847" y1="218.8625" x2="220.9031" y2="162.012" gradientTransform="matrix(1 0 0 -1 0 410)">
		<stop  offset="0" style="stop-color:#A63C00"/>
		<stop  offset="1" style="stop-color:#410D00"/>
	</linearGradient>
	<polygon class="st4" points="216,252 216,180 144,216"/>
	<linearGradient id="SVGID_5_" gradientUnits="userSpaceOnUse" x1="233.9426" y1="408.3805" x2="-90.6319" y2="154.3995" gradientTransform="matrix(1 0 0 -1 0 410)">
		<stop  offset="0" style="stop-color:#FF7800"/>
		<stop  offset="0.7922" style="stop-color:#C42200"/>
	</linearGradient>
	<polygon class="st5" points="0,72 144,0 288,72 144,144"/>
	<linearGradient id="SVGID_6_" gradientUnits="userSpaceOnUse" x1="208.9767" y1="328.3366" x2="97.9695" y2="383.8402" gradientTransform="matrix(1 0 0 -1 0 410)">
		<stop  offset="0" style="stop-color:#A63C00"/>
		<stop  offset="1" style="stop-color:#410D00"/>
	</linearGradient>
	<polygon class="st6" points="219.9,37.9 178.2,58.7 201.6,70.4 144.8,98.8 88,70.4 186.4,21.2"/>
</svg>
