<svg version="1.1" xmlns="http://www.w3.org/2000/svg" viewBox="0 0 26 26">
	<style type="text/css">
		.st0{fill:url(#SVGID_1_);}
		.st1{fill:#FFFFFF;}
	</style>
	<linearGradient id="SVGID_1_" gradientUnits="userSpaceOnUse" x1="0" y1="14" x2="26" y2="14" gradientTransform="matrix(1 0 0 -1 0 27)">
		<stop  offset="0" style="stop-color:#D55B26"/>
		<stop  offset="1" style="stop-color:#EF7D31"/>
	</linearGradient>
	<path class="st0" d="M13,26L13,26C5.8,26,0,20.2,0,13v0C0,5.8,5.8,0,13,0h0c7.2,0,13,5.8,13,13v0C26,20.2,20.2,26,13,26z"/>
	<path class="st1" d="M18.5,9c-0.3-0.3-0.7-0.5-1.1-0.5H16l-0.3-0.8c-0.1-0.2-0.2-0.4-0.4-0.5C15,7.1,14.8,7,14.6,7h-3.1c-0.2,0-0.4,0.1-0.6,0.2c-0.2,0.1-0.3,0.3-0.4,0.5l-0.3,0.8H8.7C8.3,8.6,7.9,8.7,7.6,9c-0.3,0.3-0.5,0.7-0.5,1.1v5.5c0,0.4,0.2,0.8,0.5,1.1c0.3,0.3,0.7,0.5,1.1,0.5h8.6c0.4,0,0.8-0.2,1.1-0.5c0.3-0.3,0.5-0.7,0.5-1.1v-5.5C18.9,9.7,18.8,9.3,18.5,9z M15,14.8c-0.5,0.5-1.2,0.8-1.9,0.8s-1.4-0.3-1.9-0.8c-0.5-0.5-0.8-1.2-0.8-1.9c0-0.8,0.3-1.4,0.8-1.9c0.5-0.5,1.2-0.8,1.9-0.8c0.8,0,1.4,0.3,1.9,0.8c0.5,0.5,0.8,1.2,0.8,1.9C15.8,13.6,15.5,14.3,15,14.8z"/>
	<path class="st1" d="M13,11.1c-0.5,0-0.9,0.2-1.2,0.5c-0.3,0.3-0.5,0.8-0.5,1.2c0,0.5,0.2,0.9,0.5,1.2c0.3,0.3,0.8,0.5,1.2,0.5c0.5,0,0.9-0.2,1.2-0.5c0.3-0.3,0.5-0.8,0.5-1.2c0-0.5-0.2-0.9-0.5-1.2C13.9,11.3,13.5,11.1,13,11.1z"/>
</svg>
