<svg version="1.1" xmlns="http://www.w3.org/2000/svg" viewBox="0 0 45 45">
	<style type="text/css">
		.st0{fill:url(#SVGID_1_);}
		.st1{fill:#FFFFFF;}
	</style>
	<linearGradient id="SVGID_1_" gradientUnits="userSpaceOnUse" x1="0" y1="21.5" x2="45" y2="21.5" gradientTransform="matrix(1 0 0 -1 0 44)">
		<stop  offset="0" style="stop-color:#D55B26"/>
		<stop  offset="1" style="stop-color:#EF7D31"/>
	</linearGradient>
	<path class="st0" d="M40,45H5c-2.8,0-5-2.2-5-5V5c0-2.8,2.2-5,5-5h35c2.8,0,5,2.2,5,5v35C45,42.8,42.8,45,40,45z"/>
	<path class="st1" d="M24.9,22.4l-3.7-3.5c-0.1-0.1-0.2-0.1-0.2,0l-0.9,0.9c0,0,0,0.1,0,0.1c0,0,0,0.1,0,0.1l2.6,2.5L20.1,25c0,0,0,0.1,0,0.1c0,0,0,0.1,0,0.1l0.9,0.9c0,0,0.1,0,0.1,0c0,0,0.1,0,0.1,0l3.7-3.5c0,0,0-0.1,0-0.1C25,22.5,24.9,22.4,24.9,22.4z"/>
</svg>
