<svg version="1.1" xmlns="http://www.w3.org/2000/svg" viewBox="0 0 512 512">
	<style type="text/css">
		.st0{fill:url(#SVGID_1_);}
		.st1{fill:url(#SVGID_2_);}
		.st2{fill:url(#SVGID_3_);}
		.st3{fill:url(#SVGID_4_);}
		.st4{fill:url(#SVGID_5_);}
		.st5{fill:url(#SVGID_6_);}
		.st6{fill:url(#SVGID_7_);}
	</style>
	<linearGradient id="SVGID_1_" gradientUnits="userSpaceOnUse" x1="158.785" y1="418.559" x2="455.43" y2="418.559">
		<stop  offset="0" style="stop-color:#D55B26"/>
		<stop  offset="1" style="stop-color:#EF7D31"/>
	</linearGradient>
	<path class="st0" d="M166.3,426.1h281.6c4.1,0,7.5-3.4,7.5-7.5s-3.4-7.5-7.5-7.5H166.3c-4.1,0-7.5,3.4-7.5,7.5C158.8,422.7,162.1,426.1,166.3,426.1z"/>
	<linearGradient id="SVGID_2_" gradientUnits="userSpaceOnUse" x1="158.785" y1="167.003" x2="198.464" y2="167.003">
		<stop  offset="0" style="stop-color:#D55B26"/>
		<stop  offset="1" style="stop-color:#EF7D31"/>
	</linearGradient>
	<path class="st1" d="M166.3,174.5H191c4.1,0,7.5-3.4,7.5-7.5s-3.4-7.5-7.5-7.5h-24.7c-4.1,0-7.5,3.4-7.5,7.5C158.8,171.1,162.1,174.5,166.3,174.5z"/>
	<linearGradient id="SVGID_3_" gradientUnits="userSpaceOnUse" x1="158.785" y1="229.892" x2="198.464" y2="229.892">
		<stop  offset="0" style="stop-color:#D55B26"/>
		<stop  offset="1" style="stop-color:#EF7D31"/>
	</linearGradient>
	<path class="st2" d="M166.3,237.4H191c4.1,0,7.5-3.4,7.5-7.5s-3.4-7.5-7.5-7.5h-24.7c-4.1,0-7.5,3.4-7.5,7.5C158.8,234,162.1,237.4,166.3,237.4z"/>
	<linearGradient id="SVGID_4_" gradientUnits="userSpaceOnUse" x1="158.785" y1="292.782" x2="198.464" y2="292.782">
		<stop  offset="0" style="stop-color:#D55B26"/>
		<stop  offset="1" style="stop-color:#EF7D31"/>
	</linearGradient>
	<path class="st3" d="M166.3,300.3H191c4.1,0,7.5-3.4,7.5-7.5s-3.4-7.5-7.5-7.5h-24.7c-4.1,0-7.5,3.4-7.5,7.5C158.8,296.9,162.1,300.3,166.3,300.3z"/>
	<linearGradient id="SVGID_5_" gradientUnits="userSpaceOnUse" x1="158.785" y1="355.671" x2="198.464" y2="355.671">
		<stop  offset="0" style="stop-color:#D55B26"/>
		<stop  offset="1" style="stop-color:#EF7D31"/>
	</linearGradient>
	<path class="st4" d="M166.3,363.2H191c4.1,0,7.5-3.4,7.5-7.5s-3.4-7.5-7.5-7.5h-24.7c-4.1,0-7.5,3.4-7.5,7.5S162.1,363.2,166.3,363.2z"/>
	<linearGradient id="SVGID_6_" gradientUnits="userSpaceOnUse" x1="221.8464" y1="252.3791" x2="445.1445" y2="252.3791">
		<stop  offset="0" style="stop-color:#D55B26"/>
		<stop  offset="1" style="stop-color:#EF7D31"/>
	</linearGradient>
	<path class="st5" d="M255,363.2H412c7.8,0,14.1-6.3,14.1-14.1V231.6h9.4c4.3,0,8-2.7,9.2-6.8c1.3-4.1-0.2-8.4-3.7-10.9l-102-70.6c-3.3-2.3-7.8-2.3-11,0l-102,70.6c-3.5,2.4-5,6.8-3.7,10.9c1.3,4.1,5,6.8,9.2,6.8h9.4V349C240.9,356.8,247.2,363.2,255,363.2z M351.8,348.2h-36.6v-63.4h36.6V348.2z M411.1,348.2L411.1,348.2h-44.3v-64.6c0-7.6-6.2-13.8-13.8-13.8h-39c-7.6,0-13.8,6.2-13.8,13.8v64.6h-44.3V231.6h155.2V348.2z M333.5,157.7l85,58.9h-170L333.5,157.7z"/>
	<linearGradient id="SVGID_7_" gradientUnits="userSpaceOnUse" x1="3.814697e-06" y1="256.0005" x2="512.001" y2="256.0005">
		<stop  offset="0" style="stop-color:#D55B26"/>
		<stop  offset="1" style="stop-color:#EF7D31"/>
	</linearGradient>
	<path class="st6" d="M504.5,137.9c4.1,0,7.5-3.4,7.5-7.5V103c0-14.9-12.1-27.1-27-27.1H118.7v-0.3c0-32.8-26.6-59.5-59.3-59.5S0,42.8,0,75.6v234.6c0,4.1,3.4,7.5,7.5,7.5s7.5-3.4,7.5-7.5V75.6C15,51,34.9,31.1,59.3,31.1s44.3,20,44.3,44.5v7.8v313.5c-1-1.2-2.1-2.3-3.2-3.4c-10.3-9.9-23.5-15.7-37.7-16.5c-0.3,0-0.6,0-0.9,0c-0.7,0-1.5-0.1-2.2-0.1c-0.1,0-0.2,0-0.3,0c-0.3,0-0.6,0-0.9,0c-0.5,0-0.9,0-1.4,0c-0.2,0-0.4,0-0.5,0c-0.4,0-0.8,0-1.2,0.1c-0.6,0-1.3,0.1-1.9,0.2c-0.4,0-0.8,0.1-1.2,0.1c-0.6,0.1-1.2,0.2-1.7,0.2c-0.5,0.1-0.9,0.1-1.4,0.2c-0.5,0.1-1,0.2-1.5,0.3c-0.5,0.1-1,0.2-1.6,0.3c-0.3,0.1-0.7,0.2-1,0.3c-11.8,2.9-22.2,9.4-30,18.2v-56.4c0-4.1-3.4-7.5-7.5-7.5S0,336.4,0,340.6v95.9c0,0.1,0,0.2,0,0.3c0.1,15.4,5.9,29.9,16.6,41c11.3,11.7,26.5,18.2,42.7,18.2H485c14.9,0,27-12.2,27-27.1V161.6c0-4.1-3.4-7.5-7.5-7.5s-7.5,3.4-7.5,7.5v307.2c0,6.7-5.4,12.1-12,12.1H59.3c-12.1,0-23.5-4.8-31.9-13.6c-8.3-8.7-12.7-20-12.4-32.1c0-0.3,0-0.5,0-0.8c0-0.4,0.1-0.9,0.1-1.3c0-0.3,0-0.6,0.1-0.9c0-0.4,0.1-0.8,0.1-1.2c0-0.3,0.1-0.6,0.1-0.9c0.1-0.4,0.1-0.8,0.2-1.3c0-0.3,0.1-0.6,0.1-0.8c0.1-0.5,0.2-0.9,0.3-1.4c0.1-0.2,0.1-0.5,0.2-0.7c0.1-0.5,0.2-1,0.4-1.5c0-0.2,0.1-0.3,0.1-0.5c0.2-0.6,0.3-1.1,0.5-1.7c0-0.1,0.1-0.2,0.1-0.2c4.2-12.4,13.7-22.3,25.8-27.1c0.1,0,0.1,0,0.2-0.1c0.5-0.2,1.1-0.4,1.6-0.6c0.2-0.1,0.3-0.1,0.5-0.2c0.5-0.2,0.9-0.3,1.4-0.4c0.2-0.1,0.5-0.1,0.7-0.2c0.4-0.1,0.8-0.2,1.2-0.3c0.3-0.1,0.6-0.2,1-0.2c0.4-0.1,0.7-0.2,1.1-0.2c0.4-0.1,0.8-0.1,1.1-0.2c0.3-0.1,0.6-0.1,0.9-0.2c0.4-0.1,0.8-0.1,1.3-0.2c0.3,0,0.6-0.1,0.9-0.1c0.4,0,0.9-0.1,1.3-0.1c0.3,0,0.6,0,0.9-0.1c0.4,0,0.8,0,1.2,0c0.4,0,0.7,0,1.1,0c0.4,0,0.9,0,1.3,0c0.3,0,0.6,0,0.9,0c0.5,0,1.1,0.1,1.6,0.1c0.2,0,0.4,0,0.5,0c0.7,0.1,1.4,0.2,2.1,0.3c0,0,0,0,0,0c19.8,3,35.3,19.2,37.4,39.4c0.2,1.5,0.2,3,0.2,4.6c0,0.1,0,0.1,0,0.2c0,0.3,0,0.5,0.1,0.8c0,0.1,0,0.2,0.1,0.3c0,0.3,0.1,0.5,0.2,0.8c0,0.1,0,0.1,0.1,0.2c0.1,0.3,0.2,0.6,0.3,0.8c0,0.1,0.1,0.2,0.1,0.3c0.1,0.2,0.2,0.5,0.4,0.7c0,0.1,0.1,0.1,0.1,0.2c0.2,0.2,0.3,0.5,0.5,0.7c0.1,0.1,0.1,0.2,0.2,0.2c0.2,0.2,0.4,0.4,0.6,0.5c0.1,0.1,0.1,0.1,0.2,0.2c0.2,0.2,0.4,0.3,0.7,0.5c0.1,0.1,0.2,0.1,0.2,0.1c0.3,0.2,0.6,0.3,0.9,0.4c0,0,0,0,0,0c0,0,0.1,0,0.1,0c0.3,0.1,0.6,0.2,0.8,0.3c0.1,0,0.2,0,0.2,0.1c0.3,0.1,0.6,0.1,1,0.2c0.1,0,0.1,0,0.1,0c0.2,0,0.4,0,0.6,0c0.1,0,0.2,0,0.2,0c0.1,0,0.2,0,0.3,0c0.3,0,0.6-0.1,0.9-0.1c0,0,0,0,0.1,0c0.3-0.1,0.6-0.2,1-0.3c0.1,0,0.1,0,0.2-0.1c0.3-0.1,0.6-0.2,0.9-0.4c0,0,0,0,0.1,0c0.3-0.2,0.6-0.3,0.8-0.5c0.1,0,0.1-0.1,0.2-0.1c0.3-0.2,0.5-0.4,0.8-0.7c0,0,0,0,0,0c0,0,0,0,0.1-0.1c0.2-0.2,0.3-0.3,0.4-0.5c0-0.1,0.1-0.1,0.1-0.2c0.1-0.1,0.2-0.3,0.3-0.4c0-0.1,0.1-0.1,0.1-0.2c0.1-0.2,0.2-0.3,0.3-0.5c0,0,0-0.1,0.1-0.1c0.1-0.2,0.2-0.4,0.3-0.6c0,0,0,0,0-0.1c0.1-0.2,0.2-0.4,0.2-0.6c0,0,0-0.1,0-0.1c0.1-0.2,0.1-0.4,0.2-0.6c0-0.1,0-0.1,0-0.2c0-0.2,0.1-0.4,0.1-0.5c0-0.2,0-0.5,0-0.7V90.9H485c6.6,0,12,5.4,12,12.1v27.4C497,134.5,500.4,137.9,504.5,137.9z"/>
</svg>
