<?xml version="1.0" encoding="utf-8"?>
<!-- Generator: Adobe Illustrator 21.1.0, SVG Export Plug-In . SVG Version: 6.00 Build 0)  -->
<svg version="1.1" id="Layer_1" xmlns="http://www.w3.org/2000/svg" xmlns:xlink="http://www.w3.org/1999/xlink" x="0px" y="0px"
	 viewBox="0 0 45 45" style="enable-background:new 0 0 45 45;" xml:space="preserve">
<style type="text/css">
	.st0{fill:#323232;}
	.st1{fill:#686868;}
</style>
<path class="st0" d="M22.5,45L22.5,45C10.1,45,0,34.9,0,22.5v0C0,10.1,10.1,0,22.5,0h0C34.9,0,45,10.1,45,22.5v0
	C45,34.9,34.9,45,22.5,45z"/>
<g>
	<g>
		<g>
			<path class="st1" d="M22.5,20.1L19,23.8c-0.1,0.1-0.1,0.2,0,0.2l0.9,0.9H20h0.1l2.5-2.6l2.5,2.6h0.1h0.1l0.9-0.9v-0.1v-0.1
				l-3.5-3.7h-0.1C22.6,20,22.5,20.1,22.5,20.1z"/>
		</g>
	</g>
</g>
</svg>
