<svg version="1.1" id="Layer_1" xmlns="http://www.w3.org/2000/svg" xmlns:xlink="http://www.w3.org/1999/xlink" x="0px" y="0px"
	 viewBox="0 0 611 622.2" style="enable-background:new 0 0 611 622.2;" xml:space="preserve">
	<style type="text/css">
		.st0{fill:url(#SVGID_1_);}
		.st1{fill:url(#SVGID_2_);}
		.st2{fill:url(#SVGID_3_);}
		.st3{fill:url(#SVGID_4_);}
		.st4{fill:url(#SVGID_5_);}
		.st5{fill:url(#SVGID_6_);}
		.st6{fill:url(#SVGID_7_);}
		.st7{fill:url(#SVGID_8_);}
		.st8{fill:url(#SVGID_9_);}
		.st9{fill:url(#SVGID_10_);}
		.st10{fill:url(#SVGID_11_);}
		.st11{fill:url(#SVGID_12_);}
		.st12{fill:url(#SVGID_13_);}
		.st13{fill:url(#SVGID_14_);}
		.st14{fill:url(#SVGID_15_);}
		.st15{fill:url(#SVGID_16_);}
	</style>
	<linearGradient id="SVGID_1_" gradientUnits="userSpaceOnUse" x1="232.46" y1="325.9228" x2="339.0381" y2="325.9228">
		<stop  offset="0" style="stop-color:#FF7700"/>
		<stop  offset="1" style="stop-color:#C42300"/>
	</linearGradient>
	<path class="st0" d="M288.8,465.1V265.3l-56.4,33.9v-47.3c36.2-17.5,64.8-39.2,85.9-65.1H339v278.3H288.8z"/>
	<linearGradient id="SVGID_2_" gradientUnits="userSpaceOnUse" x1="-48.4519" y1="441.6248" x2="20.5651" y2="441.6248" gradientTransform="matrix(0 1 -1 0 582.303 48.4519)">
		<stop  offset="0" style="stop-color:#FF7700"/>
		<stop  offset="1" style="stop-color:#C42300"/>
	</linearGradient>
	<path class="st1" d="M103.8,10.5c0,0,71.3-25.2,73.8,2.4l-2.9,50.5L140.2,69l3.8-23.9L103.8,10.5z"/>
	<linearGradient id="SVGID_3_" gradientUnits="userSpaceOnUse" x1="-39.0828" y1="471.9969" x2="227.1569" y2="471.9969" gradientTransform="matrix(0 1 -1 0 582.303 48.4519)">
		<stop  offset="0" style="stop-color:#FF7700"/>
		<stop  offset="1" style="stop-color:#C42300"/>
	</linearGradient>
	<path class="st2" d="M176.8,9.4c0.1,0.6,0.3,1.4,0.4,2.4c5.8,38.7-177,195.5-177,195.5l38.4,68.4L220.4,81.7L176.8,9.4z"/>
	<linearGradient id="SVGID_4_" gradientUnits="userSpaceOnUse" x1="166.2732" y1="60.9629" x2="335.249" y2="-118.5234" gradientTransform="matrix(0 1 -1 0 582.303 48.4519)">
		<stop  offset="0" style="stop-color:#FF7700"/>
		<stop  offset="1" style="stop-color:#C42300"/>
	</linearGradient>
	<path class="st3" d="M501.6,285.2c0,0,74.8,10.9,72-16.6l36.2-59.6l-112.5,6.4l29.8,44.6L501.6,285.2z"/>
	<linearGradient id="SVGID_5_" gradientUnits="userSpaceOnUse" x1="305.4824" y1="153.6933" x2="610.9668" y2="153.6933">
		<stop  offset="0" style="stop-color:#FF7700"/>
		<stop  offset="1" style="stop-color:#C42300"/>
	</linearGradient>
	<polygon class="st4" points="305.5,31.8 305.5,31.8 305.5,121.2 572.3,275.6 611,207.1"/>
	<linearGradient id="SVGID_6_" gradientUnits="userSpaceOnUse" x1="0" y1="153.6989" x2="305.4824" y2="153.6989">
		<stop  offset="0" style="stop-color:#FF7700"/>
		<stop  offset="1" style="stop-color:#C42300"/>
	</linearGradient>
	<polyline class="st5" points="0,207.1 38.6,275.6 305.5,121.2 305.5,31.8 305.2,31.9"/>
	<linearGradient id="SVGID_7_" gradientUnits="userSpaceOnUse" x1="33.9951" y1="618.3929" x2="592.0039" y2="618.3929">
		<stop  offset="0" style="stop-color:#FF7700"/>
		<stop  offset="1" style="stop-color:#C42300"/>
	</linearGradient>
		<path class="st6" d="M592,618.4c0,2.1-1.7,3.8-3.8,3.8H37.8c-2.1,0-3.8-1.7-3.8-3.8l0,0c0-2.1,1.7-3.8,3.8-3.8h550.5C590.3,614.6,592,616.3,592,618.4L592,618.4z"/>
	<linearGradient id="SVGID_8_" gradientUnits="userSpaceOnUse" x1="18.9629" y1="504.9037" x2="576.9717" y2="504.9037">
		<stop  offset="0" style="stop-color:#FF7700"/>
		<stop  offset="1" style="stop-color:#C42300"/>
	</linearGradient>
		<path class="st7" d="M577,504.9c0,2.1-1.7,3.8-3.8,3.8H22.7c-2.1,0-3.8-1.7-3.8-3.8l0,0c0-2.1,1.7-3.8,3.8-3.8h550.5C575.3,501.1,577,502.8,577,504.9L577,504.9z"/>
	<linearGradient id="SVGID_9_" gradientUnits="userSpaceOnUse" x1="520.8175" y1="427.9701" x2="506.8176" y2="313.303">
		<stop  offset="0" style="stop-color:#FF7700"/>
		<stop  offset="1" style="stop-color:#C42300"/>
	</linearGradient>
	<polygon class="st8" points="534.1,307.7 453.4,472.1 578.5,304.1"/>
	<linearGradient id="SVGID_10_" gradientUnits="userSpaceOnUse" x1="450.4834" y1="391.8734" x2="534.1348" y2="391.8734">
		<stop  offset="0" style="stop-color:#FF7700"/>
		<stop  offset="1" style="stop-color:#C42300"/>
	</linearGradient>
	<polygon class="st9" points="504.5,310.1 450.5,476.1 453.4,472.1 534.1,307.7"/>
	<linearGradient id="SVGID_11_" gradientUnits="userSpaceOnUse" x1="517.6009" y1="479.2199" x2="511.9032" y2="432.5526" gradientTransform="matrix(0.9399 0.3414 -0.3414 0.9399 170.3923 -154.3384)">
		<stop  offset="0" style="stop-color:#FF7700"/>
		<stop  offset="1" style="stop-color:#C42300"/>
	</linearGradient>
	<polygon class="st10" points="515.1,428.6 461.4,480.3 532.6,433.4"/>
	<linearGradient id="SVGID_12_" gradientUnits="userSpaceOnUse" x1="488.9754" y1="464.5269" x2="523.0206" y2="464.5269" gradientTransform="matrix(0.9399 0.3414 -0.3414 0.9399 170.3923 -154.3384)">
		<stop  offset="0" style="stop-color:#FF7700"/>
		<stop  offset="1" style="stop-color:#C42300"/>
	</linearGradient>
	<polygon class="st11" points="503.4,425.4 459.7,481.4 461.4,480.3 515.1,428.6"/>
	<linearGradient id="SVGID_13_" gradientUnits="userSpaceOnUse" x1="942.1799" y1="422.2555" x2="927.4694" y2="301.768" gradientTransform="matrix(-1 0 0 1 1028.9668 0)">
		<stop  offset="0" style="stop-color:#FF7700"/>
		<stop  offset="1" style="stop-color:#C42300"/>
	</linearGradient>
	<polygon class="st12" points="72.8,295.9 157.6,468.7 26.2,292.1"/>
	<linearGradient id="SVGID_14_" gradientUnits="userSpaceOnUse" x1="868.2759" y1="384.3275" x2="956.1733" y2="384.3275" gradientTransform="matrix(-1 0 0 1 1028.9668 0)">
		<stop  offset="0" style="stop-color:#FF7700"/>
		<stop  offset="1" style="stop-color:#C42300"/>
	</linearGradient>
	<polygon class="st13" points="103.9,298.4 160.7,472.8 157.6,468.7 72.8,295.9"/>
	<linearGradient id="SVGID_15_" gradientUnits="userSpaceOnUse" x1="911.1653" y1="332.6233" x2="905.1786" y2="283.5883" gradientTransform="matrix(-0.9399 0.3414 0.3414 0.9399 858.5745 -154.3384)">
		<stop  offset="0" style="stop-color:#FF7700"/>
		<stop  offset="1" style="stop-color:#C42300"/>
	</linearGradient>
	<polygon class="st14" points="92.8,422.9 149.2,477.3 74.4,428"/>
	<linearGradient id="SVGID_16_" gradientUnits="userSpaceOnUse" x1="881.0873" y1="317.185" x2="916.8603" y2="317.185" gradientTransform="matrix(-0.9399 0.3414 0.3414 0.9399 858.5745 -154.3384)">
		<stop  offset="0" style="stop-color:#FF7700"/>
		<stop  offset="1" style="stop-color:#C42300"/>
	</linearGradient>
	<polygon class="st15" points="105,419.6 151,478.4 149.2,477.3 92.8,422.9"/>
	<path d="M73.1,531.5c12.2,0,20.9,8.2,20.9,19.7S85.3,571,73.1,571H60.9v23.8H48.5v-63.3H73.1z M72.4,559.9c5.5,0,9.2-3.4,9.2-8.6s-3.6-8.7-9.2-8.7H60.9v17.3H72.4z"/>
	<path d="M104.3,594.8v-63.3h12.4v63.3H104.3z"/>
	<path d="M131.6,594.8v-63.3H144v30l20.4-30h14.7l-21.2,29.7l23.4,33.6h-15.1L144,561.7v33.1H131.6z"/>
	<path d="M221.5,542.5v52.2h-12.4v-63.3H249v11H221.5z"/>
	<path d="M287.6,594.8l-3.7-11.2h-22.5l-3.8,11.2h-12.9l23-63.3h9.7l23.1,63.3H287.6z M272.9,550.2l-8,23h15.7L272.9,550.2z"/>
	<path d="M332.9,531.5c12.2,0,20.9,8.2,20.9,19.7s-8.6,19.7-20.9,19.7h-12.2v23.8h-12.4v-63.3H332.9z M332.3,559.9c5.5,0,9.2-3.4,9.2-8.6s-3.6-8.7-9.2-8.7h-11.6v17.3H332.3z"/>
	<path d="M395.7,594.8l-3.7-11.2h-22.5l-3.8,11.2h-12.9l23-63.3h9.7l23.1,63.3H395.7z M380.9,550.2l-8,23h15.7L380.9,550.2z"/>
	<path d="M450.2,594.8v-26.5h-21.4v26.5h-12.4v-63.3h12.4v25.9h21.4v-25.9h12.4v63.3H450.2z"/>
	<path d="M501.4,542.5v52.2h-12.3v-52.2h-16.5v-11H518v11H501.4z"/>
	<path d="M528,594.8v-63.3h12.4v63.3H528z"/>
	<path d="M545.2,540.9v-11.1h9.9v11.1H545.2z M554.2,594.8v-46.3h11.6v46.3H554.2z M564.9,540.9v-11.1h9.9v11.1H564.9z"/>
</svg>
