<svg version="1.1" xmlns="http://www.w3.org/2000/svg" viewBox="0 0 512 512">
	<style type="text/css">
		.st0{fill:url(#SVGID_1_);}
	</style>
	<linearGradient id="SVGID_1_" gradientUnits="userSpaceOnUse" x1="-2.863803e-04" y1="255.9996" x2="511.9989" y2="255.9996">
		<stop  offset="0" style="stop-color:#D55B26"/>
		<stop  offset="1" style="stop-color:#EF7D31"/>
	</linearGradient>
	<path class="st0" d="M511.1,150.8c-0.2-6-5.3-10.6-11.3-10.4l-41.3,1.7L420,118.5c-3.5-2.2-8.1-1.1-10.3,2.5c-2.2,3.5-1.1,8.1,2.5,10.3l19.4,11.9l-158.5,6.4l-69.4,2.8L295,85.7c11.2-8.2,28.5-8.9,40.3-1.6l51.2,31.4c3.5,2.2,8.1,1.1,10.3-2.5c2.2-3.5,1.1-8.1-2.5-10.3l-51.2-31.4c-17-10.4-40.9-9.4-57,2.3l-109.3,79.9l-50,2c-6,0.2-10.6,5.3-10.4,11.3l0.9,22.8c0.2,5.8,5,10.4,10.8,10.4c0.1,0,0.3,0,0.4,0l4.5-0.2l18.3,45c1.6,3.8,5.9,5.7,9.8,4.1c3.8-1.6,5.7-5.9,4.1-9.8l-16.3-40l6.5-0.3l306.4-12.4L351,321.5l-95.5-8.7c-0.1,0-0.2,0-0.2,0l-62.4-5.6l-16.3-40.1c-1.6-3.8-5.9-5.7-9.8-4.1c-3.8,1.6-5.7,5.9-4.1,9.8l13.4,32.9l-5.5-0.5l-29.4-2.7c-0.2,0-0.4-0.2-0.5-0.4L70.7,166c-2.8-5.4-8.5-8.7-14.6-8.5l-49,2c-4.1,0.2-7.4,3.7-7.2,7.8c0.2,4.1,3.6,7.4,7.8,7.2l49-2c0.3,0,0.5,0.1,0.6,0.4l70,136.1c2.5,4.8,7.1,7.9,12.5,8.4l13.3,1.2l-9.4,69.2c0,0.1,0,0.2,0,0.3c-1.4,16,10.4,30.2,26.4,31.6l1,0.1c0.9,0.1,1.8,0.1,2.6,0.1c10.3,0,19.9-5.5,25.1-14.3l59.2-77.5l91.9,8.3l1.2,0.1l14.8,13.7c-6.5,8.9-10.5,19.4-11.5,30.6c-3.1,33.8,22,63.8,55.8,66.9c1.9,0.2,3.7,0.3,5.6,0.3c15.3,0,30-5.7,41.4-16c11.4-10.4,18.5-24.6,19.9-40c3.1-33.8-22-63.8-55.8-66.9c-1.9-0.2-3.7-0.3-5.6-0.3c-14.5,0-28.5,5.1-39.6,14.5l-11.5-10.6l117.4-143l19.6-0.8c6-0.2,10.6-5.3,10.4-11.3L511.1,150.8z M186.6,396.9c-0.2,0.3-0.4,0.6-0.6,0.9c-2.5,4.4-7.2,7.2-12.3,7.2c-0.4,0-0.9,0-1.3-0.1l-1-0.1c-7.7-0.7-13.4-7.5-12.8-15.2l9.5-69.6l3.7,0.3l68.5,6.2L186.6,396.9z M369.4,382.1c0.7-8.1,3.4-15.4,7.6-21.7l7.4,6.8c-3.3,5.6-5.3,12.1-5.3,19c0,20.5,16.7,37.2,37.2,37.2s37.2-16.7,37.2-37.2s-16.7-37.2-37.2-37.2c-8.1,0-15.7,2.6-21.8,7.1l-7.3-6.7c7.9-6.1,17.8-9.7,28.5-9.7c1.4,0,2.8,0.1,4.3,0.2c25.6,2.3,44.5,25,42.2,50.6c-2.2,24.2-22.1,42.4-46.3,42.4c-1.4,0-2.8-0.1-4.3-0.2C386,430.4,367.1,407.7,369.4,382.1z M394.1,386.3c0-12.2,10-22.2,22.2-22.2c12.2,0,22.2,10,22.2,22.2c0,12.2-10,22.2-22.2,22.2C404.1,408.4,394.1,398.5,394.1,386.3z M478,170.8l-254.9,10.3l-90.9,3.7l-0.6-14.5l48.1-2c0,0,0,0,0,0l277.2-11.2c0,0,0,0,0,0l39.4-1.6l0.6,14.5L478,170.8z"/>
</svg>
