<?xml version="1.0" encoding="utf-8"?>
<!-- Generator: Adobe Illustrator 21.1.0, SVG Export Plug-In . SVG Version: 6.00 Build 0)  -->
<svg version="1.1" id="Layer_1" xmlns="http://www.w3.org/2000/svg" xmlns:xlink="http://www.w3.org/1999/xlink" x="0px" y="0px"
	 viewBox="0 0 32 32" style="enable-background:new 0 0 32 32;" xml:space="preserve">
<style type="text/css">
	.st0{fill:#FFFFFF;}
</style>
<circle class="st0" cx="16" cy="16" r="16"/>
<g>
	<path d="M20.8,19.8l-2.1-2.1c0.5-0.7,0.8-1.6,0.8-2.4c0-1.1-0.4-2.2-1.2-3c-0.8-0.8-1.9-1.2-3-1.2c-1.1,0-2.2,0.4-3,1.2
		c-0.8,0.8-1.2,1.9-1.2,3s0.4,2.2,1.2,3c0.8,0.8,1.9,1.2,3,1.2c0.9,0,1.8-0.3,2.4-0.8l2.1,2.1c0.1,0.1,0.3,0.2,0.5,0.2
		c0.2,0,0.3-0.1,0.5-0.2C21.1,20.5,21.1,20.1,20.8,19.8z M13.2,17.2c-0.5-0.6-0.8-1.2-0.8-2c0-0.8,0.3-1.5,0.8-2
		c0.6-0.5,1.3-0.8,2-0.8c0.8,0,1.5,0.3,2,0.8c0.6,0.6,0.8,1.2,0.8,2c0,0.8-0.3,1.5-0.8,2c-0.6,0.6-1.2,0.8-2,0.8
		C14.5,18,13.8,17.8,13.2,17.2z"/>
</g>
</svg>
